<svg width="19" height="25" viewBox="0 0 19 25" fill="none" xmlns="http://www.w3.org/2000/svg">
<path fill-rule="evenodd" clip-rule="evenodd" d="M4.99984 22.5H12.9998C13.5521 22.5 13.9998 22.9477 13.9998 23.5C13.9998 24.0128 13.6138 24.4355 13.1165 24.4933L12.9998 24.5H4.99984C4.44755 24.5 3.99984 24.0523 3.99984 23.5C3.99984 22.9872 4.38588 22.5645 4.88321 22.5067L4.99984 22.5H12.9998H4.99984ZM17.101 11.1035C17.653 11.1197 18.0874 11.5804 18.0712 12.1324C18.0292 13.5647 17.5711 15.0824 16.794 16.4284C14.3087 20.733 8.80439 22.2079 4.49975 19.7226C1.74622 18.1329 0.0718457 15.2458 0.00075304 12.1258C-0.0118285 11.5737 0.425571 11.1159 0.977713 11.1033C1.52985 11.0907 1.98765 11.5281 2.00023 12.0803C2.05558 14.5091 3.35725 16.7536 5.49975 17.9906C8.8478 19.9236 13.1289 18.7764 15.0619 15.4284C15.6788 14.36 16.0401 13.1628 16.0721 12.0737C16.0883 11.5217 16.5489 11.0873 17.101 11.1035ZM8.99984 0.5C11.7613 0.5 13.9998 2.73858 13.9998 5.5V12C13.9998 14.7614 11.7613 17 8.99984 17C6.23841 17 3.99984 14.7614 3.99984 12V5.5C3.99984 2.73858 6.23841 0.5 8.99984 0.5Z" fill="#0061FF"/>
</svg>
