<svg width="20" height="20" viewBox="0 0 20 20" fill="none" xmlns="http://www.w3.org/2000/svg">
<path fill-rule="evenodd" clip-rule="evenodd" d="M19.2637 3.73938C19.9459 3.05359 19.9444 1.94514 19.2604 1.26119L19.1323 1.14501C18.4451 0.580831 17.4286 0.621295 16.7889 1.26451L8.32075 9.77821C7.56279 10.5403 7.02344 11.4919 6.75908 12.5337L6.40926 13.9123L6.41641 13.9655C6.43969 14.0502 6.51721 14.1123 6.60926 14.1123L7.94842 13.8049C9.05209 13.5516 10.0615 12.9911 10.8601 12.1883L19.2637 3.73938ZM9.25 4.06449C9.25 3.65028 8.91421 3.31449 8.5 3.31449H4L3.81558 3.31963C2.10645 3.41524 0.75 4.83146 0.75 6.56449V16.5645L0.755145 16.7489C0.850754 18.458 2.26697 19.8145 4 19.8145H14L14.1844 19.8093C15.8935 19.7137 17.25 18.2975 17.25 16.5645L17.2445 12.0636C17.244 11.6497 16.9083 11.3145 16.4945 11.3145H15.5C15.0858 11.3145 14.75 11.6503 14.75 12.0645V16.5645L14.7432 16.6663C14.6935 17.0323 14.3797 17.3145 14 17.3145H4L3.89823 17.3076C3.53215 17.258 3.25 16.9442 3.25 16.5645V6.56449L3.25685 6.46272C3.30651 6.09664 3.6203 5.81449 4 5.81449L8.50092 5.80896C8.91477 5.80845 9.25 5.47281 9.25 5.05896V4.06449Z" fill="#323B4B"/>
</svg>
