<svg width="20" height="18" viewBox="0 0 20 18" fill="none" xmlns="http://www.w3.org/2000/svg">
<path fill-rule="evenodd" clip-rule="evenodd" d="M11.6555 0.75C12.1583 0.75 12.6426 0.939367 13.0121 1.28039L14.3004 2.46961C14.6237 2.768 15.0349 2.95029 15.4695 2.9912L15.657 3H16.25C18.183 3 19.75 4.567 19.75 6.5V14.5C19.75 16.433 18.183 18 16.25 18H3.75C1.817 18 0.25 16.433 0.25 14.5V6.5C0.25 4.567 1.817 3 3.75 3H4.34303C4.84581 3 5.33015 2.81063 5.69959 2.46961L6.98791 1.28039C7.35735 0.939367 7.84169 0.75 8.34447 0.75H11.6555ZM10 5.25C7.23858 5.25 5 7.48858 5 10.25C5 13.0114 7.23858 15.25 10 15.25C12.7614 15.25 15 13.0114 15 10.25C15 7.48858 12.7614 5.25 10 5.25ZM10 6.75C11.933 6.75 13.5 8.317 13.5 10.25C13.5 12.183 11.933 13.75 10 13.75C8.067 13.75 6.5 12.183 6.5 10.25C6.5 8.317 8.067 6.75 10 6.75Z" fill="#323B4B"/>
</svg>
