<svg width="16" height="20" viewBox="0 0 16 20" fill="none" xmlns="http://www.w3.org/2000/svg">
<path fill-rule="evenodd" clip-rule="evenodd" d="M8.06818 12.5C11.9468 12.5 14.7044 14.5891 15.4262 17.6612L15.4723 17.8722C15.6207 18.6046 15.158 19.3209 14.4386 19.4721C14.3502 19.4906 14.2601 19.5 14.1698 19.5H1.85015C1.10448 19.5 0.5 18.8845 0.5 18.1252C0.5 18.05 0.506062 17.975 0.518095 17.9009L0.540612 17.7906C1.28983 14.7509 4.10138 12.5 8.06818 12.5ZM12.1564 2.84146C13.1542 4.54299 13.3394 6.62136 12.712 9.07659C12.6665 9.33154 12.8308 9.53621 13.205 9.6906L13.254 9.70907L13.3154 9.72927C13.4541 9.77229 13.5313 9.91858 13.4879 10.056C13.4756 10.0951 13.4543 10.1304 13.426 10.1594L13.3786 10.1978C12.7609 10.5894 10.9785 10.6183 9.94439 10.4155C9.26092 11.1385 8.51387 11.5 7.70325 11.5C6.89263 11.5 6.13732 11.1385 5.43733 10.4155C3.47911 10.2606 2.5 8.80636 2.5 6.05284C2.5 3.53199 3.52168 1.87522 5.56504 1.08253C5.91731 0.945863 6.30411 0.922866 6.67034 1.01681L6.94147 1.08635C8.83799 -0.0856951 10.5763 0.499342 12.1564 2.84146Z" fill="#323B4B"/>
</svg>
