<svg width="22" height="13" viewBox="0 0 22 13" fill="none" xmlns="http://www.w3.org/2000/svg">
<path fill-rule="evenodd" clip-rule="evenodd" d="M11.0098 8.28153C13.6752 8.28153 15.5702 9.68973 16.0663 11.7605L16.0979 11.9027C16.1999 12.3964 15.8819 12.8793 15.3876 12.9812C15.3268 12.9937 15.2649 13 15.2029 13H6.73667C6.22424 13 5.80883 12.5851 5.80883 12.0733C5.80883 12.0226 5.813 11.972 5.82126 11.9221L5.83674 11.8477C6.35161 9.79876 8.28374 8.28153 11.0098 8.28153ZM4.37926 8.38148C5.10584 8.38148 5.76956 8.74971 5.76956 8.74971C5.97161 8.83924 6.06611 9.08688 5.98062 9.30281C5.9667 9.33799 5.94843 9.37095 5.92636 9.40085L5.87919 9.45511C5.45088 9.90755 5.15242 10.4234 4.9146 11.0383L4.8505 11.2133L4.8179 11.3177C4.78914 11.4251 4.7716 11.5093 4.76019 11.5881L4.75065 11.6657C4.74475 11.7235 4.74136 11.7808 4.74038 11.8378L4.7407 11.9228C4.74712 12.1817 4.55532 12.3986 4.31228 12.4074C4.29248 12.4081 4.27267 12.4073 4.25297 12.4052L0.659788 12.4074C0.253633 12.3634 -0.0397917 11.9767 0.00440431 11.5436C0.00878255 11.5007 0.0164517 11.4582 0.0273182 11.4167L0.0460045 11.3551C0.631033 9.66544 1.95263 8.38148 4.37926 8.38148ZM17.6207 8.38148C19.9607 8.38148 21.2732 9.57536 21.8885 11.1756L21.954 11.3551L21.9727 11.4167C21.9835 11.4582 21.9912 11.5007 21.9956 11.5436C22.0361 11.9406 21.7929 12.2986 21.4393 12.3894L21.3402 12.4074L17.747 12.4052C17.7273 12.4073 17.7075 12.4081 17.6877 12.4074C17.4717 12.3996 17.2961 12.2273 17.2643 12.0073L17.2593 11.9228L17.2596 11.8378L17.2563 11.752L17.2398 11.5881C17.2322 11.5355 17.2219 11.4806 17.2073 11.4181L17.1821 11.3177L17.1495 11.2133L17.0854 11.0383C16.8816 10.5112 16.6332 10.057 16.2966 9.653L16.0736 9.40085C16.0516 9.37095 16.0333 9.33799 16.0194 9.30281C15.9446 9.11387 16.0076 8.90066 16.1599 8.79033L16.2304 8.74971C16.2304 8.74971 16.8853 8.38148 17.6207 8.38148ZM4.61179 1.5885C5.39962 1.78119 6.14788 2.42871 6.104 3.94947L6.09781 4.09014C6.07636 4.12379 6.37035 4.26121 6.37035 4.7036C6.37035 4.99852 6.2795 5.19926 6.09781 5.3058C5.76484 6.78771 5.07118 7.52867 4.01683 7.52867C2.96248 7.52867 2.20796 6.78771 1.75327 5.3058C1.58245 5.22936 1.49704 5.02863 1.49704 4.7036C1.49704 4.37857 1.58245 4.17408 1.75327 4.09014C1.77145 2.86121 2.04572 2.15968 2.57609 1.98556C2.78662 1.91687 2.98581 1.91687 3.17365 1.98556C3.36363 1.53282 3.84301 1.40047 4.61179 1.5885ZM17.3882 1.5885C18.157 1.40047 18.6364 1.53282 18.8264 1.98556C19.0142 1.91687 19.2134 1.91687 19.4239 1.98556C19.9543 2.15968 20.2285 2.86121 20.2467 4.09014C20.4175 4.17408 20.503 4.37857 20.503 4.7036C20.503 5.02863 20.4175 5.22936 20.2467 5.3058C19.792 6.78771 19.0375 7.52867 17.9832 7.52867C16.9288 7.52867 16.2352 6.78771 15.9022 5.3058C15.7205 5.19926 15.6296 4.99852 15.6296 4.7036C15.6296 4.30545 15.8678 4.15432 15.8998 4.10355L15.9022 4.09014L15.896 3.94947C15.8521 2.42871 16.6004 1.78119 17.3882 1.5885ZM14.0058 1.60256C14.6688 2.76712 14.7919 4.18961 14.375 5.87003C14.3448 6.04452 14.454 6.1846 14.7026 6.29027L14.776 6.31673C14.8681 6.34618 14.9195 6.44631 14.8906 6.54038C14.8824 6.56709 14.8683 6.59126 14.8495 6.61112L14.818 6.63743C14.4075 6.9054 13.223 6.92523 12.5358 6.78638C12.0816 7.28124 11.5852 7.52867 11.0465 7.52867C10.5078 7.52867 10.0058 7.28124 9.54066 6.78638C8.23934 6.68037 7.58868 5.68508 7.58868 3.8005C7.58868 2.07517 8.26763 0.941236 9.62553 0.398697C9.85963 0.30516 10.1167 0.28942 10.3601 0.353715L10.5402 0.401315C11.8005 -0.400864 12.9557 -0.000450373 14.0058 1.60256Z" fill="#323B4B"/>
</svg>
