<svg width="17" height="18" viewBox="0 0 17 18" fill="none" xmlns="http://www.w3.org/2000/svg">
<path fill-rule="evenodd" clip-rule="evenodd" d="M8.73499 1.75507L12.9566 8.90908C13.0686 9.08928 13.1527 9.09851 13.2902 9.09851C13.4278 9.09851 13.6211 9.02936 13.6549 8.84916C14.1134 6.46717 14.7141 5.36591 15.5675 5.46492C15.9474 5.50898 16.0414 5.64778 15.9908 6.17797L15.8695 7.28075L15.7877 8.11638C15.7416 8.62757 15.7123 9.04696 15.6999 9.37454C15.6487 10.7274 15.7116 11.5961 15.6999 12.3829C15.6487 15.8409 11.5191 17.5662 9.22898 16.8371C7.70224 16.3511 5.18959 13.6756 1.69103 8.81081C1.56909 8.56012 1.60691 8.34184 1.8045 8.15596C2.07619 7.90038 2.39366 8.08637 2.51105 8.17116L2.53793 8.19137C2.59537 8.23639 3.39772 9.045 4.94497 10.6172C5.1774 10.849 5.37707 10.8934 5.54398 10.7504C5.71089 10.6074 5.71089 10.3912 5.54398 10.1018L2.37725 5.42464C2.24945 5.18198 2.24945 4.83604 2.53793 4.62827C2.8264 4.42051 3.1774 4.50859 3.3948 4.77497L6.94784 8.99638C7.12354 9.17922 7.31925 9.19888 7.53498 9.05537C7.73415 8.93035 7.77426 8.74805 7.65533 8.50848L4.50251 3.31148C4.32166 2.98634 4.39541 2.59498 4.73256 2.394C5.03906 2.21128 5.3957 2.32062 5.6128 2.55867L5.67355 2.63378C5.8109 2.82603 6.99604 4.45848 9.22898 7.53111C9.40027 7.77514 9.5917 7.83363 9.80326 7.7066C9.98418 7.59796 10.0249 7.42667 9.92546 7.19272L7.64102 2.29872C7.52067 2.04419 7.62224 1.65898 7.94087 1.5091C8.25949 1.35922 8.57387 1.5091 8.73499 1.75507ZM1.05026 11.4017C1.38087 11.4242 1.63063 11.7104 1.60812 12.041C1.55172 12.8694 1.78329 13.5445 2.31069 14.1071C2.83004 14.6612 3.50201 14.9155 4.37495 14.8753C4.70597 14.86 4.98667 15.116 5.0019 15.4471C5.01714 15.7781 4.76115 16.0588 4.43013 16.074C3.21659 16.1299 2.20216 15.746 1.43519 14.9278C0.676271 14.1182 0.332213 13.1152 0.410891 11.9595C0.433399 11.6289 0.719655 11.3791 1.05026 11.4017ZM10.7146 0.20503C11.9282 0.149174 12.9426 0.533016 13.7096 1.35122C14.4685 2.16083 14.8126 3.16388 14.7339 4.31952C14.7114 4.65013 14.4251 4.89989 14.0945 4.87738C13.7639 4.85488 13.5141 4.56862 13.5366 4.23802C13.593 3.40962 13.3615 2.73452 12.8341 2.17189C12.3147 1.61784 11.6428 1.36358 10.7698 1.40376C10.4388 1.419 10.1581 1.163 10.1429 0.831983C10.1276 0.500963 10.3836 0.220266 10.7146 0.20503Z" fill="#323B4B"/>
</svg>
