<svg width="18" height="15" viewBox="0 0 18 15" fill="none" xmlns="http://www.w3.org/2000/svg">
<path fill-rule="evenodd" clip-rule="evenodd" d="M16.9121 0.5H1.08791L0.969372 0.506455C0.424296 0.566176 0 1.03299 0 1.6C0 2.20751 0.487075 2.7 1.08791 2.7H16.9121L17.0306 2.69355C17.5757 2.63382 18 2.16701 18 1.6C18 0.992487 17.5129 0.5 16.9121 0.5ZM1.08791 6.3H16.9121C17.5129 6.3 18 6.79249 18 7.4C18 7.96701 17.5757 8.43382 17.0306 8.49355L16.9121 8.5H1.08791C0.487075 8.5 0 8.00751 0 7.4C0 6.83299 0.424296 6.36618 0.969372 6.30645L1.08791 6.3ZM1.08791 12.1H16.9121C17.5129 12.1 18 12.5925 18 13.2C18 13.767 17.5757 14.2338 17.0306 14.2935L16.9121 14.3H1.08791C0.487075 14.3 0 13.8075 0 13.2C0 12.633 0.424296 12.1662 0.969372 12.1065L1.08791 12.1Z" fill="#323B4B"/>
</svg>
