<svg width="31" height="23" viewBox="0 0 31 23" fill="none" xmlns="http://www.w3.org/2000/svg">
<path fill-rule="evenodd" clip-rule="evenodd" d="M24.3781 11.6403C24.3659 11.6379 24.3537 11.6356 24.3417 11.6332C23.581 12.445 22.7497 12.851 21.8476 12.851C20.9454 12.851 20.1049 12.445 19.3259 11.6332C17.1466 11.4593 16.057 9.82647 16.057 6.73474C16.057 3.90426 17.194 2.04399 19.468 1.15393C19.5072 1.13858 19.5468 1.12451 19.5868 1.11171C19.5295 1.56637 19.5 2.02966 19.5 2.49985C19.5 6.30903 21.4362 9.666 24.3781 11.6403ZM12.0049 14.9203C11.157 14.692 10.33 14.5798 9.30701 14.5798C4.69089 14.5798 1.41912 17.1523 0.547259 20.6262L0.521057 20.7523C0.507054 20.837 0.5 20.9227 0.5 21.0087C0.5 21.8764 1.20343 22.5798 2.07116 22.5798L9.90783 22.5809C9.9499 22.5809 9.99193 22.5781 10.0336 22.5724C10.5453 22.503 10.9038 22.032 10.8344 21.5203L10.8154 21.3519C10.8052 21.2388 10.8 21.1244 10.8 21.0087C10.8 20.8025 10.8169 20.5967 10.8671 20.3047L10.9134 20.0907L11.0111 19.7301C11.3811 18.4605 11.9005 17.3742 12.708 16.3857L12.796 16.2681C12.8362 16.2041 12.8677 16.1349 12.8895 16.0622C13.0236 15.6159 12.7705 15.1454 12.3242 15.0113L12.0049 14.9203ZM30.3695 20.4784C29.5295 16.9674 26.3205 14.5798 21.807 14.5798C17.1909 14.5798 13.9191 17.1523 13.0473 20.6262L13.0211 20.7523C13.0071 20.837 13 20.9227 13 21.0087C13 21.8764 13.7034 22.5798 14.5712 22.5798H28.9074C29.0125 22.5798 29.1173 22.5691 29.2202 22.5479C30.0573 22.3752 30.5958 21.5565 30.4231 20.7195L30.3695 20.4784ZM13.7356 5.53003C13.8278 2.4004 12.2558 1.06785 10.6007 0.671306C8.98555 0.284345 7.97844 0.55672 7.57932 1.48843C7.1847 1.34707 6.76624 1.34707 6.32394 1.48843C5.20971 1.84676 4.6335 3.29045 4.59532 5.81951C4.23644 5.99226 4.05701 6.41309 4.05701 7.08198C4.05701 7.75087 4.23644 8.16397 4.59532 8.32127C5.55055 11.3709 7.13569 12.8958 9.35072 12.8958C11.5658 12.8958 13.023 11.3709 13.7226 8.32127C14.1043 8.10201 14.2951 7.68891 14.2951 7.08198C14.2951 6.409 13.9576 6.07895 13.7998 5.92461C13.7441 5.87016 13.7108 5.83757 13.7226 5.81951L13.7356 5.53003Z" fill="#B0B7C3"/>
</svg>
