<svg width="16" height="16" viewBox="0 0 16 16" fill="none" xmlns="http://www.w3.org/2000/svg">
<path fill-rule="evenodd" clip-rule="evenodd" d="M15.392 0.807969C15.6003 1.01625 15.6235 1.33956 15.4615 1.5734L15.392 1.6565C15.392 1.6565 14.6862 2.36254 14.3333 2.71556C14.2726 2.77629 14.1887 2.86021 14.1082 2.94075C13.9646 3.08438 13.9517 3.31264 14.0746 3.47428C14.1649 3.59297 14.2631 3.72541 14.3267 3.82081C15.0695 4.93446 15.5 6.25735 15.5 7.67644C15.5 11.5606 12.2751 14.7241 8.24757 14.849L8 14.8529C7.64567 14.8529 7.13218 14.9446 6.29054 14.7054C5.44889 14.4662 4.02456 14.7266 3.55066 14.9124L3.36293 14.9932L3.04004 15.1414C1.69715 15.7671 1.173 15.7341 0.775833 15.3303C0.542027 15.0927 0.650458 14.6987 0.88622 14.4629L14.5435 0.807969C14.7778 0.573654 15.1577 0.573654 15.392 0.807969ZM8 0.5C9.07132 0.5 10.0902 0.714933 11.012 1.10219C11.0377 1.11296 11.0649 1.12489 11.0934 1.13776C11.5767 1.35613 11.6591 1.99618 11.2838 2.37099C11.2188 2.4359 11.1582 2.49648 11.1063 2.54834C8.7267 4.92503 4.12613 9.52005 2.38926 11.2548C2.06007 11.5836 1.50569 11.4711 1.32535 11.0422C0.775118 9.86587 0.5 8.74395 0.5 7.67644C0.5 3.713 3.85786 0.5 8 0.5Z" fill="#323B4B"/>
</svg>
