<svg width="18" height="20" viewBox="0 0 18 20" fill="none" xmlns="http://www.w3.org/2000/svg">
<path fill-rule="evenodd" clip-rule="evenodd" d="M11.25 17.25C11.25 18.4926 10.2426 19.5 9 19.5C7.80707 19.5 6.83097 18.5716 6.75479 17.3979L6.75 17.25H11.25ZM8.99166 0.25C12.3021 0.25 14.4033 2.55005 14.9858 6.24472L15.7902 12.0802C16.3567 14.2395 17.5 13.5023 17.5 14.6864C17.5 15.4399 16.7534 15.793 15.2602 15.7458L15.0418 15.7364H2.95818L2.73979 15.7458C1.2466 15.793 0.5 15.4399 0.5 14.6864C0.5 13.5445 1.56307 14.1893 2.14695 12.3007L2.20977 12.0802C2.20977 12.0802 2.83398 7.68267 3.01422 6.24472C3.58179 2.64479 5.59113 0.368868 8.75608 0.254521L8.99166 0.25Z" fill="#323B4B"/>
</svg>
