<svg width="18" height="19" viewBox="0 0 18 19" fill="none" xmlns="http://www.w3.org/2000/svg">
<path fill-rule="evenodd" clip-rule="evenodd" d="M7.28111 10.975L7.382 11.0759C9.11928 12.7578 10.5732 13.5477 11.7437 13.4456L12.0811 13.1309C12.5608 12.6943 12.9226 12.4176 13.1663 12.3007C13.6738 12.0573 14.0299 12.0622 14.9916 12.5825C16.2569 13.2671 17.1305 14.0629 17.5769 14.5093C17.9914 14.9238 17.8626 15.6379 17.717 15.9546L17.6206 16.1313C17.3616 16.5813 16.4223 18.0658 14.6221 18.3198C13.938 18.4163 13.0744 18.3278 12.0618 18.0228C9.89273 17.2719 7.73271 15.8956 5.58173 13.8939L5.19919 13.5305L5.19559 13.5341L5.01097 13.3462L4.82293 13.1614L4.82654 13.1578L4.46313 12.7753C2.46143 10.6243 1.08511 8.46426 0.334171 6.2952C0.0291975 5.28262 -0.0592954 4.419 0.0372248 3.73487C0.309175 1.80731 1.99196 0.866772 2.30488 0.691547L2.33666 0.673614C2.6075 0.517428 3.40133 0.333739 3.84773 0.780134L4.05908 0.997498C4.51921 1.48412 5.18767 2.28087 5.77445 3.36534C6.29482 4.32709 6.29968 4.6832 6.0563 5.19065C5.91342 5.48858 5.53179 5.96278 4.91141 6.61325C4.80927 7.7838 5.59917 9.23771 7.28111 10.975Z" fill="#323B4B"/>
</svg>
