<svg width="22" height="23" viewBox="0 0 22 23" fill="none" xmlns="http://www.w3.org/2000/svg">
<path fill-rule="evenodd" clip-rule="evenodd" d="M18 0.5C20.2091 0.5 22 2.29086 22 4.5V18.5C22 20.7091 20.2091 22.5 18 22.5H4C1.79086 22.5 0 20.7091 0 18.5V4.5C0 2.29086 1.79086 0.5 4 0.5H18ZM18 2.5H4C2.89543 2.5 2 3.39543 2 4.5V14.9655C2 15.0759 2.08954 15.1655 2.2 15.1655C2.23122 15.1655 2.26201 15.1582 2.2899 15.1441L8.3036 12.118C9.9999 11.2641 12.0003 11.2636 13.697 12.1168L19.7102 15.1403C19.8088 15.1899 19.9291 15.1501 19.9787 15.0514C19.9927 15.0236 20 14.9928 20 14.9616V4.5C20 3.39543 19.1046 2.5 18 2.5ZM6.5 4.5C7.88071 4.5 9 5.61929 9 7C9 8.38071 7.88071 9.5 6.5 9.5C5.11929 9.5 4 8.38071 4 7C4 5.61929 5.11929 4.5 6.5 4.5Z" fill="#0061FF"/>
</svg>
