<svg width="18" height="20" viewBox="0 0 18 20" fill="none" xmlns="http://www.w3.org/2000/svg">
<path fill-rule="evenodd" clip-rule="evenodd" d="M16 6.5L14.6977 18.2209C14.5851 19.2337 13.729 20 12.7099 20H5.29009C4.27099 20 3.41486 19.2337 3.30232 18.2209L2 6.5H16ZM11.5401 0.75C11.832 0.75 12.1093 0.877563 12.2993 1.09921L13.2007 2.15079C13.3907 2.37244 13.668 2.5 13.9599 2.5H17.2C17.6418 2.5 18 2.85817 18 3.3V3.95C18 4.39183 17.6418 4.75 17.2 4.75H0.8C0.358172 4.75 0 4.39183 0 3.95V3.3C0 2.85817 0.358172 2.5 0.8 2.5H4.04007C4.33199 2.5 4.60934 2.37244 4.79932 2.15079L5.70068 1.09921C5.89066 0.877563 6.16801 0.75 6.45993 0.75H11.5401Z" fill="white"/>
</svg>
