<svg width="25" height="25" viewBox="0 0 25 25" fill="none" xmlns="http://www.w3.org/2000/svg">
<path d="M23.9353 9.76733L22.0907 9.36633C21.9303 8.87524 21.7316 8.39624 21.4971 7.93481L22.5182 6.34637C22.7006 6.06256 22.6605 5.68994 22.4221 5.45154L19.5485 2.57788C19.3101 2.33948 18.9374 2.29938 18.6536 2.48175L17.0652 3.50293C16.6038 3.26837 16.1248 3.0697 15.6337 2.9093L15.2327 1.0647C15.1611 0.735107 14.8692 0.5 14.5319 0.5H10.4681C10.1308 0.5 9.83893 0.735107 9.76733 1.0647L9.36633 2.9093C8.87524 3.0697 8.39624 3.26837 7.93481 3.50293L6.34637 2.48175C6.06256 2.29938 5.68994 2.33948 5.45154 2.57788L2.57788 5.45154C2.33948 5.68994 2.29938 6.06256 2.48175 6.34637L3.50293 7.93481C3.26837 8.39624 3.0697 8.87524 2.9093 9.36633L1.0647 9.76733C0.735107 9.83911 0.5 10.1308 0.5 10.4681V14.5319C0.5 14.8692 0.735107 15.1609 1.0647 15.2327L2.9093 15.6337C3.0697 16.1248 3.26837 16.6038 3.50293 17.0652L2.48175 18.6536C2.29938 18.9374 2.33948 19.3101 2.57788 19.5485L5.45154 22.4221C5.68994 22.6605 6.06256 22.7006 6.34637 22.5182L7.93481 21.4971C8.39624 21.7316 8.87524 21.9303 9.36633 22.0907L9.76733 23.9353C9.83893 24.2649 10.1308 24.5 10.4681 24.5H14.5319C14.8692 24.5 15.1611 24.2649 15.2327 23.9353L15.6337 22.0907C16.1248 21.9303 16.6038 21.7316 17.0652 21.4971L18.6536 22.5182C18.9374 22.7006 19.3101 22.6607 19.5485 22.4221L22.4221 19.5485C22.6605 19.3101 22.7006 18.9374 22.5182 18.6536L21.4971 17.0652C21.7316 16.6038 21.9303 16.1248 22.0907 15.6337L23.9353 15.2327C24.2649 15.1609 24.5 14.8692 24.5 14.5319V10.4681C24.5 10.1308 24.2649 9.83911 23.9353 9.76733ZM16.8028 12.5C16.8028 14.8725 14.8725 16.8028 12.5 16.8028C10.1275 16.8028 8.1972 14.8725 8.1972 12.5C8.1972 10.1275 10.1275 8.1972 12.5 8.1972C14.8725 8.1972 16.8028 10.1275 16.8028 12.5Z" fill="#B0B7C3"/>
</svg>
