<svg width="20" height="21" viewBox="0 0 20 21" fill="none" xmlns="http://www.w3.org/2000/svg">
<path fill-rule="evenodd" clip-rule="evenodd" d="M4 12.5C6.20914 12.5 8 14.2909 8 16.5C8 18.7091 6.20914 20.5 4 20.5C1.79086 20.5 0 18.7091 0 16.5C0 14.2909 1.79086 12.5 4 12.5ZM16 12.5C18.2091 12.5 20 14.2909 20 16.5C20 18.7091 18.2091 20.5 16 20.5C13.7909 20.5 12 18.7091 12 16.5C12 14.2909 13.7909 12.5 16 12.5ZM4 0.5C6.20914 0.5 8 2.29086 8 4.5C8 6.70914 6.20914 8.5 4 8.5C1.79086 8.5 0 6.70914 0 4.5C0 2.29086 1.79086 0.5 4 0.5ZM16 0.5C18.2091 0.5 20 2.29086 20 4.5C20 6.70914 18.2091 8.5 16 8.5C13.7909 8.5 12 6.70914 12 4.5C12 2.29086 13.7909 0.5 16 0.5Z" fill="#0061FF"/>
</svg>
