<svg width="24" height="25" viewBox="0 0 24 25" fill="none" xmlns="http://www.w3.org/2000/svg">
<path fill-rule="evenodd" clip-rule="evenodd" d="M12 0.5C18.6274 0.5 24 5.87258 24 12.5C24 19.1274 18.6274 24.5 12 24.5C5.37258 24.5 0 19.1274 0 12.5C0 5.87258 5.37258 0.5 12 0.5ZM16.7118 16.22C15.518 17.749 13.9759 18.4946 12 18.4946C10.0241 18.4946 8.48203 17.749 7.28821 16.22C6.94832 15.7847 6.3199 15.7073 5.88459 16.0472C5.44927 16.3871 5.37191 17.0155 5.71179 17.4508C7.28627 19.4674 9.41086 20.4946 12 20.4946C14.5891 20.4946 16.7137 19.4674 18.2882 17.4508C18.6281 17.0155 18.5507 16.3871 18.1154 16.0472C17.6801 15.7073 17.0517 15.7847 16.7118 16.22ZM8 8.5C7.17157 8.5 6.5 9.39543 6.5 10.5C6.5 11.6046 7.17157 12.5 8 12.5C8.82843 12.5 9.5 11.6046 9.5 10.5C9.5 9.39543 8.82843 8.5 8 8.5ZM16 8.5C15.1716 8.5 14.5 9.39543 14.5 10.5C14.5 11.6046 15.1716 12.5 16 12.5C16.8284 12.5 17.5 11.6046 17.5 10.5C17.5 9.39543 16.8284 8.5 16 8.5Z" fill="#0061FF"/>
</svg>
