<svg width="22" height="23" viewBox="0 0 22 23" fill="none" xmlns="http://www.w3.org/2000/svg">
<path fill-rule="evenodd" clip-rule="evenodd" d="M3.84355 10.366C4.39584 10.366 4.84355 10.8138 4.84355 11.366V21.1581C4.84355 21.7104 4.39584 22.1581 3.84355 22.1581H2.04789C1.74329 22.1581 1.46064 22.0092 1.28787 21.764L1.22841 21.6676C0.628219 20.5481 0.328125 18.7463 0.328125 16.2621C0.328125 13.836 0.614332 12.0608 1.18675 10.9363L1.2848 10.7549C1.42293 10.5144 1.67913 10.366 1.9565 10.366H3.84355ZM11.0582 0.134641C13.3607 0.434783 14.5119 1.90583 14.5119 4.54777C14.5119 5.08175 14.368 6.27673 14.0802 8.13271C18.7741 8.23061 20.9862 9.06199 20.9862 10.6269C20.9862 11.0125 20.8873 11.3817 20.4199 11.7346C21.1485 12.1794 21.5129 12.8126 21.5129 13.6343C21.5129 14.4559 21.0939 15.1279 20.2561 15.6502C20.6591 16.1047 20.81 16.6351 20.7088 17.2414C20.6076 17.8476 20.1491 18.3032 19.3333 18.608C19.7296 20.3205 17.7974 21.1768 13.5368 21.1768C7.25999 21.1768 6.67014 19.6061 6.65107 18.1935L6.65057 12.5002C6.58625 11.2009 6.96596 10.1096 7.78972 9.22633L7.96039 9.05244C9.41994 7.63813 10.2087 6.22412 10.3267 4.8104L10.1556 0.963449C10.136 0.522075 10.4778 0.148355 10.9192 0.12872C10.9656 0.126656 11.0121 0.128637 11.0582 0.134641Z" fill="#377DFF"/>
</svg>
