<svg width="22" height="15" viewBox="0 0 22 15" fill="none" xmlns="http://www.w3.org/2000/svg">
<path fill-rule="evenodd" clip-rule="evenodd" d="M12.5 0.5C14.1569 0.5 15.5 1.84315 15.5 3.5V11.5C15.5 13.1569 14.1569 14.5 12.5 14.5H3.5C1.84315 14.5 0.5 13.1569 0.5 11.5V3.5C0.5 1.84315 1.84315 0.5 3.5 0.5H12.5ZM21.3993 3.9711C21.4654 4.08994 21.5 4.22366 21.5 4.35961V10.6404C21.5 11.0822 21.1418 11.4404 20.7 11.4404C20.564 11.4404 20.4303 11.4057 20.3115 11.3397L17.5144 9.78575C17.1969 9.60938 17 9.27476 17 8.9116V6.0884C17 5.72524 17.1969 5.39062 17.5144 5.21425L20.3115 3.66029C20.6977 3.44572 21.1848 3.58487 21.3993 3.9711Z" fill="#323B4B"/>
</svg>
